<svg xmlns="http://www.w3.org/2000/svg" xml:space="preserve" width="1200" height="1274" viewBox="0 0 1200 1274">
<style>text{font-family:"Berkeley Mono Medium",monospace;font-size:16pt}</style>
<rect x="0" y="0" width="1200" height="1274" fill="#FAFAF8"/>
<text x="24" y="33" fill="#000000" font-weight="700">ITHILIEN DAWN / COLOR ROLES</text>
<text x="24" y="81" fill="#000000" font-weight="700">Surfaces and text</text>
<rect x="24" y="100" width="216" height="48" fill="#66716D"/>
<rect x="25" y="101" width="214" height="46" fill="#FAFAF8"/>
<text x="24" y="171" fill="#000000" font-weight="700">Asphodel</text>
<text x="24" y="195" fill="#505456" >Canvas</text>
<text x="24" y="219" fill="#505456" >#FAFAF8</text>
<rect x="258" y="100" width="216" height="48" fill="#66716D"/>
<rect x="259" y="101" width="214" height="46" fill="#FFFFFF"/>
<text x="258" y="171" fill="#000000" font-weight="700">Lily</text>
<text x="258" y="195" fill="#505456" >Raised surface</text>
<text x="258" y="219" fill="#505456" >#FFFFFF</text>
<rect x="492" y="100" width="216" height="48" fill="#66716D"/>
<rect x="493" y="101" width="214" height="46" fill="#F0F1EF"/>
<text x="492" y="171" fill="#000000" font-weight="700">Anemone</text>
<text x="492" y="195" fill="#505456" >Soft surface</text>
<text x="492" y="219" fill="#505456" >#F0F1EF</text>
<rect x="726" y="100" width="216" height="48" fill="#66716D"/>
<rect x="727" y="101" width="214" height="46" fill="#DEE0DF"/>
<text x="726" y="171" fill="#000000" font-weight="700">Gondor</text>
<text x="726" y="195" fill="#505456" >Muted surface</text>
<text x="726" y="219" fill="#505456" >#DEE0DF</text>
<rect x="960" y="100" width="216" height="48" fill="#66716D"/>
<rect x="961" y="101" width="214" height="46" fill="#C9CECB"/>
<text x="960" y="171" fill="#000000" font-weight="700">Osgiliath</text>
<text x="960" y="195" fill="#505456" >Inset surface</text>
<text x="960" y="219" fill="#505456" >#C9CECB</text>
<rect x="24" y="246" width="216" height="48" fill="#66716D"/>
<rect x="25" y="247" width="214" height="46" fill="#000000"/>
<text x="24" y="317" fill="#000000" font-weight="700">Lebethron</text>
<text x="24" y="341" fill="#505456" >Primary text</text>
<text x="24" y="365" fill="#505456" >#000000</text>
<rect x="258" y="246" width="216" height="48" fill="#66716D"/>
<rect x="259" y="247" width="214" height="46" fill="#505456"/>
<text x="258" y="317" fill="#000000" font-weight="700">Ash</text>
<text x="258" y="341" fill="#505456" >Comments / muted</text>
<text x="258" y="365" fill="#505456" >#505456</text>
<rect x="492" y="246" width="216" height="48" fill="#66716D"/>
<rect x="493" y="247" width="214" height="46" fill="#444D52"/>
<text x="492" y="317" fill="#000000" font-weight="700">Faramir</text>
<text x="492" y="341" fill="#505456" >Secondary text</text>
<text x="492" y="365" fill="#505456" >#444D52</text>
<rect x="726" y="246" width="216" height="48" fill="#66716D"/>
<rect x="727" y="247" width="214" height="46" fill="#B3CBD8"/>
<text x="726" y="317" fill="#000000" font-weight="700">Harlond</text>
<text x="726" y="341" fill="#505456" >Accent surface</text>
<text x="726" y="365" fill="#505456" >#B3CBD8</text>
<text x="24" y="421" fill="#000000" font-weight="700">Interaction</text>
<rect x="24" y="440" width="216" height="48" fill="#66716D"/>
<rect x="25" y="441" width="214" height="46" fill="#B8595C"/>
<text x="24" y="511" fill="#000000" font-weight="700">Afterglow</text>
<text x="24" y="535" fill="#505456" >Selection / cursor</text>
<text x="24" y="559" fill="#505456" >#B8595C</text>
<rect x="258" y="440" width="216" height="48" fill="#66716D"/>
<rect x="259" y="441" width="214" height="46" fill="#D6C6DE"/>
<text x="258" y="511" fill="#000000" font-weight="700">Clematis</text>
<text x="258" y="535" fill="#505456" >Search / conflict</text>
<text x="258" y="559" fill="#505456" >#D6C6DE</text>
<rect x="492" y="440" width="216" height="48" fill="#66716D"/>
<rect x="493" y="441" width="214" height="46" fill="#66716D"/>
<text x="492" y="511" fill="#000000" font-weight="700">Stonecrop</text>
<text x="492" y="535" fill="#505456" >Surface border</text>
<text x="492" y="559" fill="#505456" >#66716D</text>
<rect x="726" y="440" width="216" height="48" fill="#66716D"/>
<rect x="727" y="441" width="214" height="46" fill="#3F535F"/>
<text x="726" y="511" fill="#000000" font-weight="700">Juniper</text>
<text x="726" y="535" fill="#505456" >Interaction border</text>
<text x="726" y="559" fill="#505456" >#3F535F</text>
<text x="24" y="615" fill="#000000" font-weight="700">Diffs</text>
<rect x="24" y="634" width="216" height="48" fill="#66716D"/>
<rect x="25" y="635" width="214" height="46" fill="#E2EDDF"/>
<text x="24" y="705" fill="#000000" font-weight="700">Pelennor</text>
<text x="24" y="729" fill="#505456" >Added line</text>
<text x="24" y="753" fill="#505456" >#E2EDDF</text>
<rect x="258" y="634" width="216" height="48" fill="#66716D"/>
<rect x="259" y="635" width="214" height="46" fill="#BDD3B2"/>
<text x="258" y="705" fill="#000000" font-weight="700">Ilex</text>
<text x="258" y="729" fill="#505456" >Added emphasis</text>
<text x="258" y="753" fill="#505456" >#BDD3B2</text>
<rect x="492" y="634" width="216" height="48" fill="#66716D"/>
<rect x="493" y="635" width="214" height="46" fill="#F1E2DF"/>
<text x="492" y="705" fill="#000000" font-weight="700">Eglantine</text>
<text x="492" y="729" fill="#505456" >Deleted line</text>
<text x="492" y="753" fill="#505456" >#F1E2DF</text>
<rect x="726" y="634" width="216" height="48" fill="#66716D"/>
<rect x="727" y="635" width="214" height="46" fill="#DDAFA7"/>
<text x="726" y="705" fill="#000000" font-weight="700">Rose</text>
<text x="726" y="729" fill="#505456" >Deleted emphasis</text>
<text x="726" y="753" fill="#505456" >#DDAFA7</text>
<rect x="960" y="634" width="216" height="48" fill="#66716D"/>
<rect x="961" y="635" width="214" height="46" fill="#D7E3EA"/>
<text x="960" y="705" fill="#000000" font-weight="700">Spray</text>
<text x="960" y="729" fill="#505456" >Changed line</text>
<text x="960" y="753" fill="#505456" >#D7E3EA</text>
<rect x="24" y="780" width="216" height="48" fill="#66716D"/>
<rect x="25" y="781" width="214" height="46" fill="#D8B46A"/>
<text x="24" y="851" fill="#000000" font-weight="700">Celandine</text>
<text x="24" y="875" fill="#505456" >Changed characters</text>
<text x="24" y="899" fill="#505456" >#D8B46A</text>
<text x="24" y="955" fill="#000000" font-weight="700">Terminal colors and accents</text>
<rect x="24" y="974" width="216" height="48" fill="#66716D"/>
<rect x="25" y="975" width="214" height="46" fill="#8B3037"/>
<text x="24" y="1045" fill="#000000" font-weight="700">Briar</text>
<text x="24" y="1069" fill="#505456" >Red</text>
<text x="24" y="1093" fill="#505456" >#8B3037</text>
<rect x="258" y="974" width="216" height="48" fill="#66716D"/>
<rect x="259" y="975" width="214" height="46" fill="#315F46"/>
<text x="258" y="1045" fill="#000000" font-weight="700">Sage</text>
<text x="258" y="1069" fill="#505456" >Green</text>
<text x="258" y="1093" fill="#505456" >#315F46</text>
<rect x="492" y="974" width="216" height="48" fill="#66716D"/>
<rect x="493" y="975" width="214" height="46" fill="#795922"/>
<text x="492" y="1045" fill="#000000" font-weight="700">Mallorn</text>
<text x="492" y="1069" fill="#505456" >Yellow</text>
<text x="492" y="1093" fill="#505456" >#795922</text>
<rect x="726" y="974" width="216" height="48" fill="#66716D"/>
<rect x="727" y="975" width="214" height="46" fill="#345E77"/>
<text x="726" y="1045" fill="#000000" font-weight="700">Anduin</text>
<text x="726" y="1069" fill="#505456" >Blue</text>
<text x="726" y="1093" fill="#505456" >#345E77</text>
<rect x="960" y="974" width="216" height="48" fill="#66716D"/>
<rect x="961" y="975" width="214" height="46" fill="#70516D"/>
<text x="960" y="1045" fill="#000000" font-weight="700">Thyme</text>
<text x="960" y="1069" fill="#505456" >Magenta</text>
<text x="960" y="1093" fill="#505456" >#70516D</text>
<rect x="24" y="1120" width="216" height="48" fill="#66716D"/>
<rect x="25" y="1121" width="214" height="46" fill="#255354"/>
<text x="24" y="1191" fill="#000000" font-weight="700">Stillwater</text>
<text x="24" y="1215" fill="#505456" >Cyan</text>
<text x="24" y="1239" fill="#505456" >#255354</text>
<rect x="258" y="1120" width="216" height="48" fill="#66716D"/>
<rect x="259" y="1121" width="214" height="46" fill="#306466"/>
<text x="258" y="1191" fill="#000000" font-weight="700">Poros</text>
<text x="258" y="1215" fill="#505456" >Aqua accent</text>
<text x="258" y="1239" fill="#505456" >#306466</text>
</svg>